# xmcd
#
# Track frame offsets:
#	150
#	22028
#	39466
#	53851
#	72044
#	87375
#	102240
#	118591
#	133951
#	146936
#	166731
#
# Disc length: 2453 seconds
#
# Revision: 1
# Processed by: cddbd v1.5.2PL0 Copyright (c) Steve Scherf et al.
# Submitted via: audiograbber 1.83.01
#
DISCID=9c09930b
DTITLE=Neil Andrews - You Dont Wanna See This Face
DYEAR=1900
DGENRE=Country
TTITLE0=On For Young And Old
TTITLE1=Time Changes Nothing
TTITLE2=My Old Home Town
TTITLE3=Beatiful Girls
TTITLE4=You Don´t Wanna See This Face
TTITLE5=Long Days
TTITLE6=Wrong Answer Son
TTITLE7=They Found Love
TTITLE8=Brand New Day
TTITLE9=Once In Her Lifetime
TTITLE10=Hey There Delilah
EXTD=
EXTT0=
EXTT1=
EXTT2=
EXTT3=
EXTT4=
EXTT5=
EXTT6=
EXTT7=
EXTT8=
EXTT9=
EXTT10=
PLAYORDER=
